<svg xmlns="http://www.w3.org/2000/svg" viewBox="0 0 195.64 179.51"><defs><style>.cls-1{fill:#f0cc32;}.cls-2{fill:#ff1c64;}.cls-3{fill:#eab331;}.cls-4{fill:#f6e434;}</style></defs><g id="Layer_2" data-name="Layer 2"><g id="OBJECTS"><path class="cls-1" d="M20.23,178.28a28.42,28.42,0,0,1-16.44-41.4L67.27,16.6C72.12,6.64,81.36.44,92,0a28.15,28.15,0,0,1,9.2,1.14c7.3,2.2,13.37,7.39,17.55,15L189,127.46c3.42,5.14,6.32,10,6.59,17a28.43,28.43,0,0,1-24.71,29.3l0,.11L28.19,179.51l0,0A28,28,0,0,1,20.23,178.28Z"/><path class="cls-2" d="M185.92,129.42,115.6,18c-5-9.15-13.15-14.76-23.45-14.35-9.69.38-17.56,6.2-21.6,14.57L7,138.66A24.76,24.76,0,0,0,29.39,175.8l.8-.05v0l137.91-5.41h.07A24.76,24.76,0,0,0,192,144.65C191.72,138.81,189.4,134.64,185.92,129.42Z"/><path class="cls-3" d="M29.09,168.07a17,17,0,0,1-15.4-25.54L75.18,25.87l2.41-4.43c3.2-6,8.37-9.78,14.86-10,6.9-.27,12.1,3,16.13,9.87l71.5,113.2c1.69,2.75,4,6.57,4.15,10.47A17,17,0,0,1,168,162.63Z"/><path class="cls-1" d="M170.93,136.7h0L92.45,11.47,24,142.44a11.9,11.9,0,0,0,10.72,17.95l.51,0,0,0,125.41-4.91,0,0c.3,0,.61,0,.92,0a11.91,11.91,0,0,0,9.3-18.72Z"/><path class="cls-4" d="M33.45,167.87a13.81,13.81,0,0,1-10.69-22.42,11.77,11.77,0,0,1,1.26-3L92.44,11.51v-.1c-6.49.26-11.66,4-14.85,10l-2.41,4.43L13.69,142.53a17,17,0,0,0,15.4,25.54s1.58-.06,4.36-.17Z"/><path class="cls-2" d="M98.36,149.93a13.33,13.33,0,1,1,12.81-13.84A13.34,13.34,0,0,1,98.36,149.93ZM108,48.72c-.29-6-6.3-4.46-13.8-4.17s-13.67-.76-13.43,5.29a8.42,8.42,0,0,0,.13,1.22l7.28,55.58a8.51,8.51,0,1,0,17-.66l3-56.1A6.93,6.93,0,0,0,108,48.72Z"/></g></g></svg>